<?xml version="1.0" encoding="UTF-8" standalone="no"?>
<svg
   xmlns:dc="http://purl.org/dc/elements/1.1/"
   xmlns:cc="http://creativecommons.org/ns#"
   xmlns:rdf="http://www.w3.org/1999/02/22-rdf-syntax-ns#"
   xmlns:svg="http://www.w3.org/2000/svg"
   xmlns="http://www.w3.org/2000/svg"
   width="131.88174mm"
   height="122.58218mm"
   viewBox="0 0 131.88175 122.58219"
   version="1.1"
   id="svg8">
  <defs
     id="defs2" />
  <metadata
     id="metadata5">
    <rdf:RDF>
      <cc:Work
         rdf:about="">
        <dc:format>image/svg+xml</dc:format>
        <dc:type
           rdf:resource="http://purl.org/dc/dcmitype/StillImage" />
        <dc:title></dc:title>
      </cc:Work>
    </rdf:RDF>
  </metadata>
  <g
     id="layer1"
     transform="translate(-52.828418,-11.323301)">
    <g
       id="g3109"
       transform="matrix(2.7414179,0,0,2.7414179,8456.4642,8875.4278)"
       style="fill:#454545;fill-opacity:1;stroke:none">
      <path
         id="path860"
         style="fill:#39c684;fill-opacity:1;stroke-width:17.0589;stroke-linejoin:round"
         d="m 553.81055,254.62891 1.65039,9.23437 c 5.72149,32.02874 11.1091,40.67814 54.33008,87.2168 38.22131,41.15696 50.17955,61.51365 59.68554,102.40625 a 263.64982,263.64982 0 0 0 40.61914,-32.19922 l 0.68946,-33.73438 c 0.85998,-42.00663 2.8303,-79.38629 4.40625,-83.4707 4.04193,-10.47524 12.77309,-15.26593 35.74609,-19.60937 19.68951,-3.72281 24.77529,-6.97292 24.87891,-15.83594 0.10361,-11.30518 -4.27313,-11.7964 -115.42774,-12.92578 z m -165.11719,1.5039 c -46.96193,-0.15524 -98.79999,1.73616 -104.35547,5.37696 -13.76598,9.02051 -6.45619,19.45378 15.88477,22.66992 20.21275,2.91048 33.03532,8.81276 37.27929,17.16601 2.84313,5.59612 3.97963,26.19015 4.67383,84.83594 l 0.375,34.19141 a 263.64982,263.64982 0 0 0 33.02734,27.38476 l 0.0664,-27.30859 0.10352,-43.17774 22.29883,43.17774 22.30273,43.17773 h 79.29101 79.28907 L 534.625,376.9668 C 481.31837,272.70036 476.90346,265.26859 465.34961,260.39258 c -6.55211,-2.76424 -40.12613,-4.1353 -76.65039,-4.25977 z"
         transform="matrix(0.09651332,0,0,0.09651332,-3092.2037,-3233.4327)" />
      <path
         id="path853"
         style="fill:#414141;fill-opacity:1;stroke:none;stroke-width:2.74141"
         d="m 530.28516,0.32421875 c -42.85422,0 -77.91602,0.63365687 -77.91602,1.40039065 0,2.2732617 45.21171,91.9176566 73.26172,145.2636706 38.17505,72.59827 44.51153,82.86629 54.04492,87.57031 6.94723,3.43165 23.27398,4.16797 94.74805,4.16797 91.48893,0.0269 97.63145,-0.46533 100.0332,-8.0332 3.69068,-11.62637 -2.02459,-15.73573 -26.9082,-19.34766 -18.63991,-2.70429 -28.34779,-8.26636 -32.43945,-18.58203 -1.76559,-4.45328 -3.50466,-44.20026 -4.375,-99.917967 L 709.94531,42.136719 A 263.64982,263.64982 0 0 0 676.75195,14.935547 l 1.1875,39.53125 c 2.70532,90.093273 3.93393,89.689213 -35.9414,11.839844 L 608.20117,0.32421875 Z M 378.7168,13.644531 A 263.64982,263.64982 0 0 0 342.60742,43.140625 L 342.51172,83.25 c -0.28079,116.23785 -1.93345,123.30816 -29.64258,126.78125 -19.55319,2.45199 -28.89239,5.137 -32.86914,10.02344 v 14.14258 c 0.35046,0.3191 0.72635,0.63337 1.15039,0.94335 h -0.004 c 4.01706,2.94056 26.69732,3.68555 111.6504,3.68555 h 106.60937 l -1.81445,-8.91015 C 491.04047,197.73805 487.16375,191.76525 442.39062,144.86914 417.38474,118.67689 409.13864,107.92911 400.2207,89.898438 390.65864,70.569313 380.58009,34.139025 378.7168,13.644531 Z"
         transform="matrix(0.09651332,0,0,0.09651332,-3092.2037,-3233.4327)" />
    </g>
  </g>
</svg>
