<?xml version="1.0" encoding="UTF-8" standalone="no"?>
<svg
   xmlns:dc="http://purl.org/dc/elements/1.1/"
   xmlns:cc="http://creativecommons.org/ns#"
   xmlns:rdf="http://www.w3.org/1999/02/22-rdf-syntax-ns#"
   xmlns:svg="http://www.w3.org/2000/svg"
   xmlns="http://www.w3.org/2000/svg"
   xmlns:sodipodi="http://sodipodi.sourceforge.net/DTD/sodipodi-0.dtd"
   xmlns:inkscape="http://www.inkscape.org/namespaces/inkscape"
   width="279.97879mm"
   height="122.5827mm"
   viewBox="0 0 279.97879 122.58271"
   version="1.1"
   id="svg8"
   sodipodi:docname="systems.svg"
   inkscape:version="1.0.1 (3bc2e813f5, 2020-09-07)">
  <sodipodi:namedview
     pagecolor="#ffffff"
     bordercolor="#666666"
     borderopacity="1"
     objecttolerance="10"
     gridtolerance="10"
     guidetolerance="10"
     inkscape:pageopacity="0"
     inkscape:pageshadow="2"
     inkscape:window-width="1920"
     inkscape:window-height="1017"
     id="namedview13"
     showgrid="false"
     fit-margin-top="0"
     fit-margin-left="0"
     fit-margin-right="0"
     fit-margin-bottom="0"
     inkscape:zoom="0.43251498"
     inkscape:cx="1162.9546"
     inkscape:cy="-150.50481"
     inkscape:window-x="1912"
     inkscape:window-y="-8"
     inkscape:window-maximized="1"
     inkscape:current-layer="g3109" />
  <defs
     id="defs2" />
  <metadata
     id="metadata5">
    <rdf:RDF>
      <cc:Work
         rdf:about="">
        <dc:format>image/svg+xml</dc:format>
        <dc:type
           rdf:resource="http://purl.org/dc/dcmitype/StillImage" />
        <dc:title></dc:title>
      </cc:Work>
    </rdf:RDF>
  </metadata>
  <g
     id="layer1"
     transform="translate(3206.5297,3371.2889)">
    <g
       id="g1295"
       transform="translate(209.53931,-96.217034)">
      <g
         id="g3109"
         transform="matrix(2.741418,0,0,2.741418,5060.9443,5589.0335)"
         style="fill:#454545;fill-opacity:1;stroke:none">
        <path
           id="path853"
           style="fill:#414141;fill-opacity:1;stroke:none;stroke-width:2.74141"
           d="m 342.67383,0 -0.19727,82.927734 c -0.28079,116.237846 -1.93345,123.308156 -29.64258,126.781246 -24.56448,3.08041 -33.01947,6.52592 -34.95703,14.2461 -1.31795,5.25005 -0.44825,8.16831 3.23828,10.86328 h -0.004 c 4.01706,2.94053 26.69734,3.68555 111.65039,3.68555 h 106.60937 l -1.81445,-8.91016 C 491.00521,197.41581 487.12857,191.44299 442.35547,144.54688 417.34959,118.35463 409.10349,107.60684 400.18555,89.576172 389.65021,68.279629 378.45322,26.15411 378.34961,7.5390625 378.31334,0.10381908 378.09689,0 360.49414,0 Z m 509.9082,0 -0.16406,84.298828 c -0.22173,114.628742 -1.95191,121.933952 -29.67969,125.410152 -24.56448,3.08041 -33.01947,6.52592 -34.95703,14.2461 -1.31795,5.25005 -0.45021,8.16831 3.23633,10.86328 h 0.002 c 4.01706,2.94053 26.66722,3.68555 111.46485,3.68555 h 106.42377 l -1.6602,-11.65039 C 1004.0506,204.42241 993.59078,188.40245 956.50781,149.14258 926.54718,117.4226 918.93905,107.572 909.75586,88.601562 899.39459,67.194154 888.36143,25.524145 888.25781,7.5390625 888.22155,0.10381908 888.0051,0 870.40234,0 Z M 530.25,0.00195313 c -42.85419,0 -77.91602,0.63365704 -77.91602,1.40039067 0,2.2732614 45.21171,91.9176652 73.26172,145.2636762 38.17505,72.59827 44.51153,82.86629 54.04492,87.57031 6.94723,3.43165 23.27398,4.16797 94.74805,4.16797 91.48893,0.0269 97.63146,-0.46534 100.03321,-8.03321 3.69068,-11.62637 -2.0246,-15.73572 -26.90821,-19.34765 -18.63991,-2.70429 -28.34779,-8.26636 -32.43945,-18.58203 -1.76556,-4.45328 -3.50466,-44.20027 -4.375,-99.917972 L 709.25781,0.00195313 H 692.76758 676.27734 L 677.9043,54.144531 c 2.70532,90.093269 3.93392,89.689209 -35.94141,11.839844 L 608.16602,0.00195313 Z M 0,0.00390625 C -0.33366777,99.839078 1.2559616,121.90766 22.257812,159.14062 c 31.845347,60.60511 39.744114,73.03764 48.408204,76.20508 8.011329,2.92913 175.863864,4.24111 186.250004,1.45703 10.40892,-2.79028 11.26727,-17.63866 1.25,-21.63085 -2.52194,-1.00505 -11.77236,-2.86906 -20.55664,-4.14454 -18.62852,-2.70325 -28.33266,-8.25806 -32.4668,-18.58203 -1.80804,-4.5144 -3.51171,-43.43146 -4.36133,-99.917966 L 199.38477,0.00390625 H 182.90039 166.41797 L 167.58594,51.40625 c 2.1023,92.54681 3.72994,91.86346 -35.50196,14.873047 C 94.741559,-8.8984269 71.771467,0.00390625 0,0.00390625 Z M 898.58203,255.80859 c -46.96744,-0.1668 -98.8081,1.72928 -104.37695,5.37891 -13.76598,9.02052 -6.45619,19.45183 15.88476,22.66797 20.21276,2.91048 33.03337,8.81472 37.27735,17.16797 2.84313,5.59612 3.98157,26.19014 4.67578,84.83594 l 0.83203,77.44531 h 16.25781 16.25781 l 0.10352,-43.17774 0.10352,-43.17773 22.42187,43.17773 c 29.313,54.41945 62.62295,40.72543 150.16797,43.17774 0.734,-79.37908 -10.2549,-81.03211 -27.7969,-114.79883 -38.13668,-73.81261 -44.42789,-83.9046 -55.12693,-88.41797 -6.57066,-2.77241 -40.15141,-4.14956 -76.68164,-4.2793 z m -855.298827,1.23243 1.886719,9.23828 c 6.805278,33.33426 11.874021,41.43917 54.427734,87.02148 38.548044,41.29171 47.526814,56.96747 61.041014,106.57617 0.63204,2.31885 7.03156,3.42774 19.80078,3.42774 h 18.86719 l 1.52148,-74.70508 c 0.84756,-41.63778 2.79452,-77.97686 4.39844,-82.09961 4.01914,-10.33018 13.24032,-15.55995 33.58985,-19.05273 18.46481,-3.16952 27.10156,-8.3111 27.10156,-16.13282 0,-11.60979 -3.87445,-12.05087 -115.76367,-13.1875 z"
           transform="matrix(0.09651332,0,0,0.09651332,-3092.2002,-3233.4016)"
           sodipodi:nodetypes="ccccccscccccscccccccscccccscsscccccccccccscsccccscccccccccsccsccccccccccsccccsccccscc" />
        <path
           id="path3117-3"
           style="fill:#39c684;fill-opacity:1;stroke:none;stroke-width:0.264583"
           d="m -3038.7536,-3208.8577 0.1593,0.8913 c 0.5522,3.0912 1.0722,3.926 5.2436,8.4176 3.7679,4.0573 4.892,6.0145 5.8198,10.1346 0.1592,0.7066 0.2157,0.7276 1.9706,0.7276 h 1.8068 l 0.1501,-7.3421 c 0.083,-4.0542 0.2731,-7.6619 0.4252,-8.0561 0.3901,-1.011 1.2328,-1.4733 3.45,-1.8925 1.9003,-0.3593 2.3912,-0.673 2.4012,-1.5284 0.01,-1.0911 -0.4125,-1.1385 -11.1404,-1.2475 z m -15.9354,0.1452 c -4.5326,-0.015 -9.5361,0.1675 -10.0723,0.5189 -1.3286,0.8706 -0.6231,1.8776 1.5331,2.188 1.9508,0.2809 3.1884,0.8505 3.598,1.6567 0.2744,0.5401 0.3841,2.5277 0.4511,8.1878 l 0.082,7.4745 h 1.5691 1.5691 l 0.01,-4.1672 0.01,-4.1672 2.1521,4.1672 2.1524,4.1672 h 7.6528 7.6524 l -4.276,-8.3638 c -5.1448,-10.0631 -5.571,-10.7804 -6.6861,-11.251 -0.6324,-0.2668 -3.8729,-0.3991 -7.3982,-0.4111 z" />
      </g>
    </g>
  </g>
</svg>
